<?xml version="1.0" standalone="no"?>
<!DOCTYPE svg PUBLIC "-//W3C//DTD SVG 20010904//EN"
 "http://www.w3.org/TR/2001/REC-SVG-20010904/DTD/svg10.dtd">
<svg version="1.0" xmlns="http://www.w3.org/2000/svg"
 width="700.000000pt" height="700.000000pt" viewBox="0 0 700.000000 700.000000"
 preserveAspectRatio="xMidYMid meet">
<metadata>
Created by potrace 1.11, written by Peter Selinger 2001-2013
</metadata>
<g transform="translate(0.000000,700.000000) scale(0.100000,-0.100000)"
fill="#000000" stroke="none">
<path d="M1035 6817 c-52 -21 -85 -48 -113 -96 l-27 -46 0 -2715 0 -2715 25
-43 c25 -45 93 -97 138 -106 138 -29 4816 -846 4845 -846 75 0 141 42 180 115
l22 40 0 2715 0 2715 -25 40 c-35 56 -67 82 -125 100 -61 19 -4821 855 -4861
854 -16 0 -42 -6 -59 -12z m1580 -932 c183 -38 371 -117 503 -212 121 -86 250
-221 296 -310 49 -96 -16 -188 -118 -169 -46 9 -72 31 -150 129 -174 219 -432
342 -716 341 -206 -1 -340 -54 -476 -188 -135 -134 -196 -290 -196 -501 1
-428 314 -835 739 -961 118 -35 297 -44 405 -20 95 21 198 70 269 128 91 74
105 81 150 75 86 -11 148 -98 119 -167 -26 -63 -163 -165 -290 -217 -207 -83
-487 -88 -737 -12 -99 30 -297 130 -378 191 -272 206 -448 478 -517 798 -26
122 -27 311 -3 425 78 368 359 633 727 685 88 12 278 5 373 -15z m1874 -351
c392 -69 722 -129 731 -134 10 -5 30 -23 44 -41 32 -38 35 -102 7 -136 -42
-50 -26 -52 -775 77 -385 66 -709 122 -718 124 -24 5 -30 -7 -15 -28 9 -12 80
-28 272 -61 143 -25 278 -50 300 -56 98 -26 173 -88 201 -168 10 -28 13 -209
14 -823 l0 -786 -31 -26 c-17 -14 -43 -26 -57 -27 -15 -1 4 -9 43 -18 251 -62
454 -172 616 -333 109 -109 159 -187 159 -248 0 -42 -4 -52 -31 -74 -23 -20
-42 -26 -75 -26 -64 0 -94 20 -152 98 -169 227 -413 355 -707 369 -102 5 -133
2 -203 -15 -237 -60 -393 -208 -474 -448 -20 -61 -23 -87 -22 -229 0 -144 3
-169 27 -248 54 -176 148 -327 286 -460 182 -175 390 -270 621 -283 185 -11
336 37 489 156 81 62 116 73 173 51 37 -14 77 -61 84 -98 9 -49 -13 -91 -78
-144 -154 -129 -316 -187 -548 -196 -491 -19 -954 263 -1189 724 -89 175 -133
354 -133 542 1 458 288 807 724 881 49 8 125 11 207 8 123 -4 128 -4 98 11
-17 9 -40 29 -51 44 -21 28 -21 38 -24 777 -2 594 -5 750 -15 759 -7 5 -141
33 -298 61 -312 57 -352 70 -415 144 -41 48 -74 132 -74 188 0 139 104 236
235 221 22 -3 361 -61 754 -129z m-1959 -1994 c14 -5 117 -28 230 -51 117 -25
208 -48 213 -56 4 -7 15 -13 22 -13 8 0 15 -2 15 -5 0 -3 -61 -127 -136 -277
-84 -168 -131 -273 -125 -277 6 -4 66 -18 133 -31 131 -25 168 -45 168 -92 -1
-23 -183 -248 -627 -775 -179 -213 -199 -233 -227 -233 -24 0 -36 7 -49 29
-16 28 -15 35 78 372 53 189 96 357 98 373 l2 29 -140 27 c-146 28 -185 41
-185 64 0 19 175 681 211 799 43 139 45 141 183 132 61 -3 122 -10 136 -15z"/>
</g>
</svg>
